<svg width="162" height="196" viewBox="0 0 162 196" fill="none" xmlns="http://www.w3.org/2000/svg">
  <path d="M52.9568 41.1576L115.356 90.096L82.6484 131.8L20.2492 82.8615L52.9568 41.1576Z" fill="#FEF8E2"/>
  <path d="M157.187 71.0509L71.6401 195.481L42.7988 175.652L128.346 51.2221L157.187 71.0509Z" fill="#FEF8E2"/>
  <path d="M160.187 60.0509L70.6744 190.249L35.2407 165.888L124.753 35.6899L160.187 60.0509Z" fill="#FDE899"/>
  <path d="M46.9568 31.1576L109.356 80.096L76.6484 121.8L14.2492 72.8615L46.9568 31.1576Z" fill="#FDE899"/>
  <path d="M161.187 51.0509L69.9747 183.721L29.5969 155.961L120.809 23.2906L161.187 51.0509Z" fill="#FCD757"/>
  <path d="M40.9568 20.1576L103.356 69.096L70.6484 110.8L8.24922 61.8615L40.9568 20.1576Z" fill="#FCD757"/>
  <path d="M35.9568 10.1576L98.3559 59.096L65.6484 100.8L3.24922 51.8615L35.9568 10.1576Z" fill="#D09E00"/>
  <path d="M160.482 41.1839L67.57 176.326L25.5441 147.433L118.456 12.2906L160.482 41.1839Z" fill="#D09E00"/>
  <path d="M32.7076 0L95.1067 48.9384L62.3992 90.6423L1.69277e-05 41.7039L32.7076 0Z" fill="#8F7103"/>
  <path d="M160.186 30.9429L65.6275 168.48L21.9535 138.454L116.512 0.916516L160.186 30.9429Z" fill="#8F7103"/>
</svg>
